<svg width="171" height="48" viewBox="0 0 171 48" fill="none" xmlns="http://www.w3.org/2000/svg">
<rect x="0.75" y="0.75" width="169.5" height="46.5" rx="7.25" fill="#2B2A30" stroke="white" stroke-width="1.5"/>
<path d="M56.9519 22.9979C56.9301 20.4595 59.0774 19.2257 59.1717 19.169C57.953 17.4389 56.0669 17.1978 55.4067 17.1765C53.8252 17.0134 52.2873 18.1054 51.4821 18.1054C50.6623 18.1054 49.4146 17.1978 48.0797 17.2191C46.3605 17.2474 44.7427 18.2188 43.8649 19.7362C42.0441 22.8206 43.4007 27.3586 45.149 29.8545C46.0267 31.074 47.0424 32.4425 48.3844 32.3929C49.6902 32.3432 50.1835 31.5775 51.7577 31.5775C53.3247 31.5775 53.7817 32.3929 55.1455 32.3645C56.5529 32.3432 57.4307 31.1378 58.2794 29.9041C59.2878 28.5072 59.6941 27.1246 59.7086 27.0537C59.6723 27.0395 56.9809 26.0326 56.9519 22.9979Z" fill="white"/>
<path d="M54.2689 15.8071C54.9355 14.9889 55.3891 13.8731 55.2654 12.7371C54.3032 12.7776 53.0937 13.393 52.3996 14.1977C51.7879 14.9077 51.2381 16.0641 51.3756 17.1528C52.4614 17.2339 53.5747 16.6118 54.2689 15.8071Z" fill="white"/>
<path d="M75.4343 32.394H73.6453L72.6656 29.3616H69.2579L68.3279 32.394H66.5886L69.9607 22.074H72.0479L75.4343 32.394ZM72.3745 28.0899L71.4871 25.3998C71.3948 25.1204 71.2173 24.4775 70.9617 23.4574H70.9262C70.8197 23.8976 70.6565 24.5474 70.4293 25.3998L69.5561 28.0899H72.3745Z" fill="white"/>
<path d="M83.7885 28.3889C83.7885 29.6772 83.4365 30.695 82.7252 31.4423C82.093 32.1113 81.3027 32.4388 80.3687 32.4388C79.3556 32.4388 78.63 32.0829 78.1845 31.364V35.3427H76.4818V27.1789C76.4818 26.3676 76.4602 25.5419 76.4171 24.6878H77.9115L78.0049 25.8907H78.0337C78.6012 24.9868 79.4634 24.5312 80.6129 24.5312C81.5182 24.5312 82.2654 24.8871 82.8689 25.5918C83.4868 26.3035 83.7885 27.2288 83.7885 28.3889ZM82.057 28.4459C82.057 27.7056 81.8918 27.1007 81.5541 26.6238C81.1877 26.1256 80.692 25.8765 80.0741 25.8765C79.6574 25.8765 79.2766 26.0188 78.9317 26.2893C78.5941 26.5668 78.3641 26.9227 78.2636 27.3711C78.2133 27.5775 78.1845 27.7483 78.1845 27.8836V29.1505C78.1845 29.6985 78.357 30.1683 78.6946 30.5455C79.0323 30.9227 79.4778 31.1149 80.0238 31.1149C80.6632 31.1149 81.159 30.8658 81.5182 30.3818C81.8774 29.8907 82.057 29.2501 82.057 28.4459Z" fill="white"/>
<path d="M92.6343 28.3889C92.6343 29.6772 92.2822 30.695 91.5709 31.4423C90.9387 32.1113 90.1484 32.4388 89.2144 32.4388C88.2014 32.4388 87.4757 32.0829 87.0303 31.364V35.3427H85.3275V27.1789C85.3275 26.3676 85.306 25.5419 85.2628 24.6878H86.7573L86.8507 25.8907H86.8794C87.447 24.9868 88.3091 24.5312 89.4587 24.5312C90.3639 24.5312 91.1111 24.8871 91.7146 25.5918C92.3325 26.3035 92.6343 27.2288 92.6343 28.3889ZM90.9028 28.4459C90.9028 27.7056 90.7375 27.1007 90.3999 26.6238C90.0334 26.1256 89.5377 25.8765 88.9198 25.8765C88.5031 25.8765 88.1223 26.0188 87.7775 26.2893C87.4398 26.5668 87.2171 26.9227 87.1093 27.3711C87.059 27.5775 87.0303 27.7483 87.0303 27.8836V29.1505C87.0303 29.6985 87.2027 30.1683 87.5404 30.5455C87.8781 30.9227 88.3235 31.1149 88.8695 31.1149C89.509 31.1149 90.0119 30.8658 90.3639 30.3818C90.7303 29.8907 90.9028 29.2501 90.9028 28.4459Z" fill="white"/>
<path d="M102.463 29.2933C102.463 30.1895 102.132 30.915 101.478 31.4769C100.756 32.0886 99.7485 32.3944 98.4552 32.3944C97.2596 32.3944 96.3047 32.1739 95.5829 31.7401L95.9964 30.3388C96.7784 30.7727 97.6356 30.9932 98.5679 30.9932C99.2371 30.9932 99.7635 30.851 100.132 30.5664C100.508 30.2819 100.696 29.8978 100.696 29.4213C100.696 28.9945 100.538 28.6389 100.237 28.3473C99.9289 28.0556 99.4176 27.7854 98.7033 27.5364C96.7408 26.8465 95.7708 25.8436 95.7708 24.5277C95.7708 23.6671 96.1167 22.9629 96.801 22.4081C97.4852 21.8604 98.395 21.583 99.5304 21.583C100.538 21.583 101.38 21.7466 102.049 22.0809L101.598 23.4466C100.967 23.1265 100.26 22.9629 99.4627 22.9629C98.8386 22.9629 98.3424 23.1123 97.989 23.3968C97.6957 23.6599 97.5453 23.9729 97.5453 24.3499C97.5453 24.7624 97.7183 25.1109 98.0566 25.3741C98.3499 25.6231 98.8913 25.8934 99.6733 26.185C100.628 26.5477 101.327 26.9745 101.779 27.4653C102.237 27.9561 102.463 28.5678 102.463 29.2933Z" fill="white"/>
<path d="M107.869 26.1166H105.889V29.6871C105.889 30.5918 106.238 31.0476 106.936 31.0476C107.254 31.0476 107.52 31.0199 107.732 30.9716L107.785 32.2147C107.429 32.3321 106.966 32.3943 106.39 32.3943C105.677 32.3943 105.131 32.194 104.729 31.8003C104.327 31.4067 104.13 30.7437 104.13 29.8183V26.1097H102.954V24.8873H104.13V23.5406L105.889 23.0571V24.8873H107.869V26.1166Z" fill="white"/>
<path d="M116.223 28.3918C116.223 29.5536 115.891 30.5028 115.233 31.2466C114.541 32.0116 113.622 32.3941 112.477 32.3941C111.375 32.3941 110.491 32.0258 109.834 31.2961C109.177 30.5665 108.851 29.6386 108.851 28.5193C108.851 27.3505 109.191 26.3943 109.862 25.6505C110.541 24.9067 111.452 24.5312 112.597 24.5312C113.7 24.5312 114.59 24.8996 115.262 25.6363C115.905 26.3447 116.223 27.2655 116.223 28.3918ZM114.491 28.4273C114.491 27.7331 114.343 27.1451 114.046 26.6493C113.693 26.0472 113.191 25.7496 112.541 25.7496C111.869 25.7496 111.353 26.0472 111.007 26.6493C110.703 27.1451 110.562 27.7472 110.562 28.4627C110.562 29.1569 110.71 29.7519 111.007 30.2407C111.367 30.8428 111.876 31.1403 112.527 31.1403C113.163 31.1403 113.664 30.8357 114.032 30.2265C114.336 29.7165 114.491 29.1215 114.491 28.4273Z" fill="white"/>
<path d="M121.629 26.195C121.47 26.166 121.298 26.1516 121.112 26.1516C120.541 26.1516 120.093 26.3758 119.783 26.8315C119.515 27.2294 119.377 27.7429 119.377 28.3506V32.3941H117.745V27.1136C117.745 26.2239 117.732 25.4137 117.697 24.6904H119.115L119.177 26.166H119.226C119.398 25.6597 119.666 25.2474 120.038 24.9436C120.403 24.6687 120.795 24.5312 121.215 24.5312C121.367 24.5312 121.505 24.5457 121.622 24.5602L121.629 26.195Z" fill="white"/>
<path d="M129 28.1259C129 28.4237 128.978 28.6789 128.935 28.8845H123.776C123.798 29.629 124.045 30.2033 124.525 30.5932C124.961 30.9406 125.52 31.1179 126.21 31.1179C126.973 31.1179 127.67 30.9974 128.295 30.7634L128.564 31.9262C127.83 32.2381 126.966 32.3941 125.97 32.3941C124.772 32.3941 123.827 32.0467 123.144 31.359C122.461 30.6712 122.12 29.7424 122.12 28.5868C122.12 27.4523 122.44 26.5023 123.079 25.7436C123.747 24.9354 124.648 24.5312 125.782 24.5312C126.893 24.5312 127.743 24.9354 128.31 25.7436C128.768 26.3959 129 27.1829 129 28.1259ZM127.358 27.6934C127.373 27.1971 127.256 26.7646 127.024 26.403C126.726 25.9351 126.268 25.7011 125.658 25.7011C125.099 25.7011 124.641 25.928 124.292 26.3818C124.009 26.7433 123.835 27.1829 123.784 27.6863L127.358 27.6934Z" fill="white"/>
<path d="M71.5029 18.1428H70.6082L70.1176 16.701H68.4148L67.9458 18.1428H67.08L68.7611 13.2285H69.8001L71.5029 18.1428ZM69.9661 16.0918L69.5259 14.8057C69.4826 14.6771 69.3961 14.3657 69.259 13.8783H69.2445C69.1868 14.0882 69.1147 14.3928 68.992 14.8057L68.5591 16.0918H69.9661Z" fill="white"/>
<path d="M75.4343 14.7026L74.0802 18.1426H73.3074L71.9943 14.7026H72.8492L73.4578 16.5211C73.5604 16.8231 73.6493 17.1119 73.7177 17.3877H73.7382C73.7998 17.1382 73.8887 16.8494 73.9981 16.5211L74.5999 14.7026H75.4343Z" fill="white"/>
<path d="M78.6457 18.056L78.584 17.6232H78.5634C78.3165 17.9695 77.9668 18.1426 77.5143 18.1426C76.8697 18.1426 76.4171 17.6665 76.4171 17.0317C76.4171 16.1012 77.1851 15.6178 78.5154 15.6178V15.5457C78.5154 15.048 78.2617 14.8027 77.768 14.8027C77.4114 14.8027 77.1028 14.8965 76.8285 15.084L76.664 14.5358C76.9931 14.3194 77.4114 14.2112 77.8983 14.2112C78.8377 14.2112 79.3108 14.7306 79.3108 15.7765V17.1688C79.3108 17.5511 79.3245 17.8468 79.3657 18.0705L78.6457 18.056ZM78.536 16.1733C77.6514 16.1733 77.2057 16.3969 77.2057 16.9379C77.2057 17.3347 77.432 17.5295 77.7543 17.5295C78.1588 17.5295 78.536 17.2048 78.536 16.7576V16.1733Z" fill="white"/>
<path d="M80.8261 13.7416C80.5562 13.7416 80.3486 13.5248 80.3486 13.2357C80.3486 12.9466 80.5631 12.7371 80.8399 12.7371C81.1167 12.7371 81.3382 12.9466 81.3313 13.2357C81.3313 13.5392 81.1237 13.7416 80.8261 13.7416ZM80.4385 14.3631H81.2413V18.1428H80.4385V14.3631Z" fill="white"/>
<path d="M82.8057 12.7371H83.7886V18.1428H82.8057V12.7371Z" fill="white"/>
<path d="M87.0052 18.0562L86.9433 17.6242H86.9227C86.6753 17.9698 86.3247 18.1426 85.8711 18.1426C85.225 18.1426 84.7714 17.6674 84.7714 17.0337C84.7714 16.1049 85.5412 15.6225 86.8746 15.6225V15.5505C86.8746 15.0536 86.6203 14.8088 86.1254 14.8088C85.768 14.8088 85.4587 14.9024 85.1838 15.0896L85.0189 14.5352C85.3488 14.3192 85.768 14.2112 86.256 14.2112C87.1976 14.2112 87.6719 14.7296 87.6719 15.7737V17.1634C87.6719 17.545 87.6856 17.8402 87.72 18.0634H87.0052V18.0562ZM86.8952 16.1769C86.0086 16.1769 85.5618 16.4001 85.5618 16.9401C85.5618 17.3362 85.7886 17.5306 86.1117 17.5306C86.5172 17.5306 86.8952 17.2066 86.8952 16.7601V16.1769Z" fill="white"/>
<path d="M91.3238 18.1428C90.7466 18.1428 90.3175 17.9268 90.0367 17.4949H90.0211L89.9665 18.0592H89.1943C89.2177 17.7666 89.2255 17.4392 89.2255 17.077V12.7371H90.1381V14.9453H90.1537C90.4267 14.5413 90.8558 14.3393 91.4564 14.3393C92.4393 14.3393 93.1257 15.0916 93.1257 16.1853C93.1257 17.3138 92.3613 18.1428 91.3238 18.1428ZM91.1366 14.9732C90.614 14.9732 90.1381 15.3772 90.1381 15.9415V16.5824C90.1381 17.0839 90.5672 17.4949 91.121 17.4949C91.7996 17.4949 92.2052 17.0003 92.2052 16.2132C92.2052 15.4747 91.784 14.9732 91.1366 14.9732Z" fill="white"/>
<path d="M94.1086 12.7371H95.0914V18.1428H94.1086V12.7371Z" fill="white"/>
<path d="M99.4774 16.3897H96.9011C96.9158 17.1038 97.403 17.5078 98.1191 17.5078C98.5029 17.5078 98.8499 17.4429 99.1599 17.3275L99.2928 17.9118C98.9311 18.0705 98.5029 18.1426 98.001 18.1426C96.7903 18.1426 96.0743 17.3996 96.0743 16.2382C96.0743 15.084 96.8051 14.2112 97.905 14.2112C98.8868 14.2112 99.5143 14.9253 99.5143 16.0074C99.5143 16.1589 99.5069 16.2887 99.4774 16.3897ZM98.6949 15.791C98.6949 15.2067 98.3922 14.7955 97.846 14.7955C97.3514 14.7955 96.9675 15.2139 96.9084 15.791H98.6949Z" fill="white"/>
<path d="M104.394 18.1426C103.222 18.1426 102.463 17.3218 102.463 16.2057C102.463 15.0392 103.237 14.2112 104.463 14.2112C105.62 14.2112 106.394 14.996 106.394 16.1409C106.394 17.3146 105.597 18.1426 104.394 18.1426ZM104.432 14.8232C103.789 14.8232 103.375 15.392 103.375 16.1769C103.375 16.9545 103.796 17.5162 104.425 17.5162C105.053 17.5162 105.475 16.9113 105.475 16.1553C105.467 15.392 105.061 14.8232 104.432 14.8232Z" fill="white"/>
<path d="M110.817 18.1426H109.946V15.9307C109.946 15.2473 109.675 14.9093 109.15 14.9093C108.631 14.9093 108.278 15.3428 108.278 15.8499V18.1353H107.407V15.3943C107.407 15.0563 107.4 14.6888 107.377 14.292H108.143L108.181 14.8872H108.203C108.436 14.4757 108.917 14.2112 109.45 14.2112C110.276 14.2112 110.817 14.8285 110.817 15.8352V18.1426Z" fill="white"/>
<path d="M116.215 15.1699H115.226V16.8592C115.226 17.2915 115.404 17.5043 115.751 17.5043C115.906 17.5043 116.045 17.491 116.153 17.4711L116.176 18.0564C115.999 18.1162 115.767 18.1428 115.481 18.1428C114.77 18.1428 114.353 17.8036 114.353 16.9257V15.1699H113.766V14.5912H114.353V13.9528L115.234 13.72V14.5846H116.223V15.1699" fill="white"/>
<path d="M120.154 18.1428H119.401V16.0272C119.401 15.3621 119.167 15.0295 118.713 15.0295C118.323 15.0295 117.959 15.3196 117.959 15.9069V18.1357H117.206V12.7371H117.959V14.9588H117.972C118.212 14.5555 118.55 14.3574 118.992 14.3574C119.713 14.3574 120.154 14.9659 120.154 15.9352V18.1428Z" fill="white"/>
<path d="M124.54 16.3897H121.964C121.979 17.1038 122.466 17.5078 123.182 17.5078C123.566 17.5078 123.913 17.4429 124.223 17.3275L124.356 17.9118C123.994 18.0705 123.566 18.1426 123.064 18.1426C121.853 18.1426 121.137 17.3996 121.137 16.2382C121.137 15.084 121.868 14.2112 122.968 14.2112C123.95 14.2112 124.577 14.9253 124.577 16.0074C124.577 16.1589 124.57 16.2887 124.54 16.3897ZM123.758 15.791C123.758 15.2067 123.455 14.7955 122.909 14.7955C122.414 14.7955 122.023 15.2139 121.971 15.791H123.758Z" fill="white"/>
</svg>
