<svg width="171" height="48" viewBox="0 0 171 48" fill="none" xmlns="http://www.w3.org/2000/svg">
<rect x="0.75" y="0.75" width="169.5" height="46.5" rx="7.25" fill="#2B2A30" stroke="white" stroke-width="1.5"/>
<path d="M83.2642 22.4799C81.1125 22.4799 79.3634 24.1166 79.3634 26.3757C79.3634 28.6233 81.1125 30.2715 83.2642 30.2715C85.416 30.2715 87.1651 28.6233 87.1651 26.3757C87.1651 24.1281 85.416 22.4799 83.2642 22.4799ZM83.2642 28.7385C82.0905 28.7385 81.0664 27.7588 81.0664 26.3757C81.0664 24.9695 82.079 24.0129 83.2642 24.0129C84.4494 24.0129 85.462 24.9695 85.462 26.3757C85.4505 27.7588 84.4379 28.7385 83.2642 28.7385ZM93.7124 23.3559H93.6549C93.2752 22.8948 92.5387 22.4799 91.6067 22.4799C89.662 22.4799 87.8785 24.1973 87.8785 26.3872C87.8785 28.5656 89.662 30.2715 91.6067 30.2715C92.5387 30.2715 93.2752 29.8565 93.6549 29.384H93.7124V29.9487C93.7124 31.4356 92.9185 32.2309 91.6412 32.2309C90.5941 32.2309 89.9497 31.4817 89.6851 30.8478L88.2007 31.4702C88.6264 32.5075 89.7656 33.7754 91.6527 33.7754C93.6549 33.7754 95.3464 32.5997 95.3464 29.7182V22.722H93.7239L93.7124 23.3559ZM91.7563 28.7385C90.5826 28.7385 89.593 27.7473 89.593 26.3872C89.593 25.0156 90.5826 24.0129 91.7563 24.0129C92.9185 24.0129 93.8275 25.0156 93.8275 26.3872C93.8275 27.7588 92.9185 28.7385 91.7563 28.7385ZM74.7492 22.4799C72.5974 22.4799 70.8484 24.1166 70.8484 26.3757C70.8484 28.6233 72.5974 30.2715 74.7492 30.2715C76.901 30.2715 78.65 28.6233 78.65 26.3757C78.65 24.1281 76.901 22.4799 74.7492 22.4799ZM74.7492 28.7385C73.5755 28.7385 72.5514 27.7588 72.5514 26.3757C72.5514 24.9695 73.564 24.0129 74.7492 24.0129C75.9229 24.0129 76.947 24.9695 76.947 26.3757C76.9355 27.7588 75.9229 28.7385 74.7492 28.7385ZM64.6117 23.6671V25.3153H68.5585C68.4435 26.2489 68.1328 26.9289 67.661 27.4015C67.0856 27.9778 66.1881 28.6117 64.6117 28.6117C62.1837 28.6117 60.2851 26.6523 60.2851 24.2203C60.2851 21.7883 62.1837 19.8289 64.6117 19.8289C65.9235 19.8289 66.8785 20.3476 67.5919 21.0046L68.7541 19.8405C67.7646 18.8953 66.4528 18.1692 64.6117 18.1692C61.2862 18.1692 58.4785 20.8893 58.4785 24.2203C58.4785 27.5513 61.2747 30.2715 64.6117 30.2715C66.4067 30.2715 67.7646 29.6836 68.8232 28.5772C69.9163 27.4822 70.25 25.9492 70.25 24.716C70.25 24.3356 70.2155 23.9783 70.158 23.6786L64.6117 23.6671ZM106.036 24.9695C105.714 24.0935 104.724 22.4914 102.711 22.4914C100.709 22.4914 99.0401 24.0705 99.0401 26.3872C99.0401 28.5656 100.686 30.283 102.895 30.283C104.678 30.283 105.714 29.188 106.14 28.5541L104.817 27.6666C104.379 28.3121 103.769 28.7385 102.906 28.7385C102.043 28.7385 101.422 28.3351 101.019 27.5629L106.22 25.4075L106.036 24.9695ZM100.743 26.2604C100.697 24.7505 101.905 23.9898 102.78 23.9898C103.459 23.9898 104.034 24.3241 104.218 24.8197L100.743 26.2604ZM96.5086 30.041H98.2116V18.5957H96.5086V30.041ZM114.045 18.5957H109.96V30.041H111.663V25.7072H114.045C115.932 25.7072 117.796 24.3356 117.796 22.1457C117.796 19.9672 115.932 18.5957 114.045 18.5957ZM114.091 24.0935H111.663V20.1747H114.091C115.368 20.1747 116.093 21.2351 116.093 22.1341C116.093 23.0332 115.368 24.0935 114.091 24.0935ZM118.74 30.041H120.443V18.5957H118.74V30.041ZM124.631 22.4569C123.4 22.4569 122.111 22.9986 121.582 24.2088L123.101 24.8427C123.423 24.2088 124.021 24.0013 124.654 24.0013C125.54 24.0013 126.438 24.5315 126.449 25.4767V25.5919C126.139 25.419 125.483 25.1539 124.666 25.1539C123.032 25.1539 121.375 26.053 121.375 27.7358C121.375 29.2687 122.71 30.2484 124.217 30.2484C125.368 30.2484 126.001 29.7298 126.392 29.1304H126.449V30.0179H128.095V25.6265C128.106 23.5979 126.587 22.4569 124.631 22.4569ZM124.424 28.7385C123.86 28.7385 123.089 28.4619 123.089 27.7703C123.089 26.8828 124.056 26.5486 124.896 26.5486C125.644 26.5486 126.001 26.7099 126.449 26.9289C126.323 27.9893 125.414 28.7385 124.424 28.7385ZM134.101 22.7104L132.145 27.6781H132.088L130.062 22.7104H128.221L131.259 29.6491L129.522 33.5218H131.305L136 22.722H134.101V22.7104Z" fill="white"/>
<path d="M35.1542 14.6771C34.9241 14.9191 34.786 15.2995 34.786 15.7836V33.2224C34.786 33.7065 34.9241 34.0868 35.1542 34.3289L35.2117 34.3865L44.9695 24.6125V24.3819L35.2117 14.6079L35.1542 14.6771Z" fill="url(#paint0_linear_5_88)"/>
<path d="M48.2144 27.8743L44.9695 24.6125V24.382L48.2259 21.1201L48.295 21.1662L52.1498 23.3562C53.2544 23.9786 53.2544 25.0044 52.1498 25.6383L48.295 27.8282L48.2144 27.8743Z" fill="url(#paint1_linear_5_88)"/>
<path d="M48.295 27.8281L44.9695 24.4971L35.1542 34.3287C35.5109 34.7091 36.1208 34.7667 36.7882 34.3748L48.295 27.8281Z" fill="url(#paint2_linear_5_88)"/>
<path d="M48.295 21.1775L36.7882 14.6307C36.1093 14.2503 35.5109 14.2964 35.1542 14.6768L44.9695 24.5085L48.295 21.1775Z" fill="url(#paint3_linear_5_88)"/>
<path opacity="0.2" d="M48.2144 27.759L36.7882 34.2597C36.1438 34.6285 35.58 34.6055 35.2117 34.2712L35.1542 34.3288L35.2117 34.3865C35.58 34.7207 36.1553 34.7438 36.7882 34.3749L48.295 27.8282L48.2144 27.759Z" fill="black"/>
<path opacity="0.12" d="M35.1542 34.2135C34.9241 33.9714 34.786 33.5911 34.786 33.107V33.2222C34.786 33.7063 34.9241 34.0867 35.1542 34.3287L35.2117 34.2711L35.1542 34.2135ZM52.1383 25.5229L48.2144 27.7589L48.2835 27.8281L52.1383 25.6381C52.6906 25.3269 52.9668 24.912 52.9668 24.4971C52.9207 24.8774 52.6446 25.2347 52.1383 25.5229Z" fill="black"/>
<path opacity="0.25" d="M36.7882 14.7344L52.1383 23.4711C52.6331 23.7593 52.9207 24.1166 52.9668 24.4969C52.9668 24.082 52.6906 23.6671 52.1383 23.3559L36.7882 14.6192C35.6835 13.9968 34.786 14.5154 34.786 15.7718V15.887C34.786 14.6307 35.6835 14.112 36.7882 14.7344Z" fill="white"/>
<defs>
<linearGradient id="paint0_linear_5_88" x1="44.0945" y1="15.5938" x2="30.8585" y2="28.8079" gradientUnits="userSpaceOnUse">
<stop stop-color="#00A0FF"/>
<stop offset="0.007" stop-color="#00A1FF"/>
<stop offset="0.26" stop-color="#00BEFF"/>
<stop offset="0.512" stop-color="#00D2FF"/>
<stop offset="0.76" stop-color="#00DFFF"/>
<stop offset="1" stop-color="#00E3FF"/>
</linearGradient>
<linearGradient id="paint1_linear_5_88" x1="53.5741" y1="24.503" x2="34.5221" y2="24.503" gradientUnits="userSpaceOnUse">
<stop stop-color="#FFE000"/>
<stop offset="0.409" stop-color="#FFBD00"/>
<stop offset="0.775" stop-color="#FFA500"/>
<stop offset="1" stop-color="#FF9C00"/>
</linearGradient>
<linearGradient id="paint2_linear_5_88" x1="46.4849" y1="26.316" x2="28.5358" y2="44.2352" gradientUnits="userSpaceOnUse">
<stop stop-color="#FF3A44"/>
<stop offset="1" stop-color="#C31162"/>
</linearGradient>
<linearGradient id="paint3_linear_5_88" x1="32.6825" y1="8.86424" x2="40.6976" y2="16.866" gradientUnits="userSpaceOnUse">
<stop stop-color="#32A071"/>
<stop offset="0.069" stop-color="#2DA771"/>
<stop offset="0.476" stop-color="#15CF74"/>
<stop offset="0.801" stop-color="#06E775"/>
<stop offset="1" stop-color="#00F076"/>
</linearGradient>
</defs>
</svg>
