<svg width="81" height="14" viewBox="0 0 81 14" fill="none" xmlns="http://www.w3.org/2000/svg">
<path d="M51.3141 6.40717C50.5006 7.24377 50.0851 8.31115 50.0851 9.58047C50.0851 10.8498 50.4948 11.9114 51.3083 12.7422C52.1161 13.5731 53.0854 13.9942 54.1816 13.9942C55.272 13.9942 56.201 13.6885 56.9395 13.0942L57.1183 12.9499V13.7404H59.1608V5.40325H57.1183V6.211L56.9395 6.06099C56.2067 5.4494 55.2778 5.14362 54.1816 5.14362C53.0911 5.14939 52.1276 5.57057 51.3141 6.40717ZM56.3452 7.65341C56.8587 8.15537 57.1183 8.80157 57.1183 9.58624C57.1183 10.3709 56.8587 11.0171 56.3452 11.5075C55.8375 11.998 55.2374 12.2518 54.5739 12.2518C53.8469 12.2518 53.2411 12.0095 52.7738 11.5248C52.3065 11.0402 52.0641 10.3882 52.0641 9.58624C52.0641 8.78426 52.3007 8.12652 52.7738 7.64187C53.2469 7.15145 53.8527 6.90335 54.5739 6.90335C55.2374 6.89758 55.8317 7.15145 56.3452 7.65341Z" fill="#2B2A30"/>
<path d="M70.8674 5.14935C69.6558 5.14935 68.623 5.57053 67.7979 6.39559C66.9729 7.22065 66.5517 8.29381 66.5517 9.58621C66.5517 10.8786 66.9671 11.946 67.7864 12.7653C68.6057 13.5846 69.6327 14 70.827 14C71.7617 14 72.5925 13.7807 73.2906 13.348C73.9888 12.9153 74.5196 12.2691 74.8773 11.4267L74.9869 11.1498H73.0195C72.5521 11.8998 71.8194 12.2806 70.8328 12.2806C70.2789 12.2806 69.7942 12.0902 69.3788 11.7094C68.9692 11.3344 68.698 10.8267 68.5826 10.1978L68.5595 10.0651H75.0965V9.40158C75.0504 8.1611 74.6176 7.12834 73.7984 6.33213C72.9848 5.54746 71.9982 5.14935 70.8674 5.14935ZM68.6172 8.69768L68.6518 8.55921C68.7845 8.03418 69.0673 7.61876 69.4942 7.33028C69.9154 7.04179 70.377 6.89755 70.8674 6.89755C71.3693 6.89755 71.8194 7.03603 72.2002 7.31297C72.5867 7.58991 72.8521 8.0111 72.9964 8.55921L73.031 8.69768H68.6172Z" fill="#2B2A30"/>
<path d="M63.8342 4.52629C63.8342 4.1051 63.9669 3.77623 64.2208 3.53968C64.6189 3.17042 65.2304 3.08964 65.9574 3.29735V1.50876C65.6632 1.43376 65.3574 1.39337 65.0574 1.39337C64.0765 1.39337 63.2745 1.67608 62.6803 2.23574C62.086 2.79539 61.786 3.56276 61.786 4.52052V5.40327H60.482V7.03608H61.786V13.7404H63.8284V7.03608H66.0959V5.40327H63.8284V4.52629H63.8342Z" fill="#2B2A30"/>
<path d="M46.0002 7.30726L43.5308 6.81108C42.7115 6.64953 42.2961 6.22258 42.2961 5.53599C42.2961 5.10327 42.4808 4.73401 42.85 4.43976C43.2135 4.15127 43.6924 4.00703 44.2751 4.00703C44.8809 4.00703 45.4117 4.18012 45.8502 4.52053C46.1445 4.74555 46.3637 5.03403 46.5022 5.38021C46.5599 5.52445 46.6003 5.65715 46.6291 5.78985H48.8158L48.7581 5.43791C48.5504 4.45707 48.0369 3.66663 47.2407 3.08966C46.4387 2.5127 45.4579 2.21844 44.3213 2.21844C43.0173 2.21844 41.9673 2.53577 41.1999 3.16467C40.4441 3.78779 40.0575 4.60707 40.0575 5.61099C40.0575 7.34188 41.0153 8.38042 42.9885 8.79583L45.4233 9.2574C45.9425 9.36703 46.3002 9.52281 46.5195 9.73052C46.7387 9.944 46.8541 10.244 46.8541 10.6133C46.8541 11.0691 46.6637 11.4499 46.2772 11.7441C45.9021 12.0326 45.3771 12.1768 44.7021 12.1768C43.45 12.1768 42.6077 11.6922 42.198 10.7402C42.1346 10.5902 42.0826 10.4517 42.048 10.3075H39.7286L39.7863 10.671L39.7979 10.746C39.9421 11.773 40.4441 12.575 41.2864 13.1288C42.1634 13.7 43.2366 13.9943 44.477 13.9943C45.8156 13.9943 46.9061 13.6712 47.7196 13.0423C48.5216 12.4134 48.9312 11.5537 48.9312 10.4863C48.9312 9.6382 48.6716 8.94007 48.1638 8.40927C47.6503 7.87846 46.9234 7.5092 46.0002 7.30726Z" fill="#2B2A30"/>
<path d="M79.8738 5.2417C78.893 5.2417 78.091 5.52441 77.4967 6.08407C76.9024 6.64372 76.6024 7.41109 76.6024 8.36885V13.7404H78.6449V9.2516V8.36885C78.6449 7.94766 78.7776 7.61879 79.0314 7.38224C79.4295 7.01298 80.0411 6.9322 80.7681 7.13991V5.35132C80.4738 5.28209 80.1738 5.2417 79.8738 5.2417Z" fill="#2B2A30"/>
<path d="M1.37784 2.24731H0.0219727V13.7404H7.961V12.5057H1.37784V2.24731Z" fill="#2B2A30"/>
<path d="M10.4881 2.24731C10.2342 2.24731 10.0265 2.33386 9.85344 2.50695C9.68035 2.68004 9.5938 2.88198 9.5938 3.1243C9.5938 3.37817 9.68035 3.58587 9.85344 3.74742C10.0265 3.91474 10.2342 3.99552 10.4881 3.99552C10.7535 3.99552 10.967 3.91474 11.1401 3.74742C11.3132 3.5801 11.3997 3.3724 11.3997 3.1243C11.3997 2.88198 11.3132 2.68004 11.1343 2.50695C10.9497 2.33386 10.7362 2.24731 10.4881 2.24731Z" fill="#2B2A30"/>
<path d="M11.1574 5.68018H9.83613V13.7404H11.1574V5.68018Z" fill="#2B2A30"/>
<path d="M34.6225 9.28048C34.5763 8.03423 34.1609 7.01877 33.382 6.23987C32.5974 5.4552 31.6281 5.06287 30.4741 5.06287C29.274 5.06287 28.2471 5.47828 27.3874 6.30334C26.5277 7.13417 26.1007 8.20155 26.1007 9.51702C26.1007 10.821 26.5219 11.8826 27.3701 12.7076C28.2182 13.5327 29.2221 13.9423 30.3876 13.9423C31.3453 13.9423 32.1819 13.7116 32.8801 13.25C33.5609 12.8 34.0629 12.1595 34.3975 11.3229L34.536 10.9767H33.2666H33.2724H33.2666C32.7301 12.1884 31.7665 12.7942 30.3876 12.7942C29.6202 12.7942 28.9394 12.5172 28.3451 11.9634C27.7509 11.4095 27.422 10.6767 27.3701 9.75935H34.6225V9.28048ZM27.422 8.78429C27.5489 7.99385 27.9066 7.37072 28.4951 6.90915C29.0836 6.44758 29.7414 6.21679 30.4741 6.21679C31.1953 6.21679 31.8185 6.44181 32.3435 6.89185C32.8685 7.34188 33.1916 7.97654 33.3013 8.78429H27.422Z" fill="#2B2A30"/>
<path d="M24.2141 5.2648L21.1966 12.1768L18.4444 5.91677C18.2771 5.53597 17.8905 5.27057 17.4463 5.27057C17.4405 5.27057 17.4347 5.27057 17.429 5.27057V5.2648H16.7366H15.5135V3.27427C15.5135 2.7377 15.6635 2.30497 15.9693 1.98764C16.275 1.66454 16.6847 1.50876 17.1982 1.50876C17.5271 1.50876 17.8502 1.578 18.156 1.7107V0.522153C17.8271 0.41253 17.4809 0.337524 17.1116 0.337524C16.2289 0.337524 15.525 0.602929 15 1.12797C14.4749 1.653 14.2095 2.36844 14.2095 3.27427V5.2648H12.7325V6.3668H14.2095V13.7404H15.5135V6.3668H16.5231C17.2213 6.37257 17.3309 6.63221 17.504 7.00723L20.1811 13.0596C20.3484 13.4461 20.735 13.7173 21.185 13.7173C21.6408 13.7173 22.0332 13.4404 22.1947 13.0423L25.6334 5.2648H24.2141Z" fill="#2B2A30"/>
</svg>
