<svg width="48" height="48" viewBox="0 0 48 48" fill="none" xmlns="http://www.w3.org/2000/svg">
<path d="M37.9364 0H10.0636C4.50543 0 0 4.50543 0 10.0636V37.9364C0 43.4946 4.50543 48 10.0636 48H37.9364C43.4946 48 48 43.4946 48 37.9364V10.0636C48 4.50543 43.4946 0 37.9364 0Z" fill="#F09215"/>
<path d="M11.5316 18.7799C11.5413 18.5384 11.5607 18.3018 11.5897 18.0652C11.5703 18.2487 11.5461 18.4901 11.5316 18.7799Z" fill="black"/>
<path d="M11.6622 17.6452C11.6622 17.6452 11.6283 17.7949 11.5944 18.0605C11.6138 17.9205 11.6428 17.7804 11.6719 17.6404L11.6622 17.6452Z" fill="black"/>
<path d="M20.4893 21.4067C21.3427 21.4067 22.0346 20.7149 22.0346 19.8614C22.0346 19.008 21.3427 18.3162 20.4893 18.3162C19.6359 18.3162 18.944 19.008 18.944 19.8614C18.944 20.7149 19.6359 21.4067 20.4893 21.4067Z" fill="#2F2E34"/>
<path d="M27.5107 21.4067C28.3641 21.4067 29.0559 20.7149 29.0559 19.8614C29.0559 19.008 28.3641 18.3162 27.5107 18.3162C26.6572 18.3162 25.9654 19.008 25.9654 19.8614C25.9654 20.7149 26.6572 21.4067 27.5107 21.4067Z" fill="#2F2E34"/>
<path d="M34.6768 28.5827C37.299 25.4197 38.4821 22.1698 38.2937 18.6495C38.1247 15.4382 36.5794 12.9465 33.8269 11.4447C32.5279 10.7348 31.0889 10.4306 29.6885 10.4837C26.6945 10.7251 24.6036 12.6954 24.0966 13.2217C24.0386 13.2941 23.9951 13.3521 23.9758 13.3521C23.8599 13.3521 23.7344 13.0865 23.6281 13.0044C23.5026 12.8595 23.377 12.7195 23.2418 12.5891C22.1312 11.5654 20.9915 11.0632 20.3734 10.8459C19.9581 10.7058 19.538 10.5996 19.1179 10.5513C16.713 10.2712 14.4145 10.9618 12.6326 12.4877C10.8265 14.0378 9.7883 16.2495 9.70138 18.7123C9.59514 21.6772 10.4547 24.507 12.2559 27.1292C12.9271 28.1094 13.9074 29.1139 15.0133 30.0845C14.0668 30.8523 13.4632 32.0209 13.4632 33.3344C13.4632 35.6426 15.3368 37.5163 17.645 37.5163C19.4318 37.5163 20.9577 36.3911 21.5517 34.8121C22.0974 35.1501 22.5851 35.4446 22.9762 35.6764C23.2853 35.8599 23.6378 35.9517 23.9855 35.9517C24.3235 35.9517 24.6615 35.8648 24.9658 35.6909C25.3666 35.4591 25.8784 35.1646 26.4579 34.8169C27.0567 36.3911 28.5778 37.5163 30.3646 37.5163C32.6728 37.5163 34.5464 35.6426 34.5464 33.3344C34.5464 32.0692 33.9815 30.9344 33.0929 30.1666C32.8515 29.9589 32.8515 29.9589 33.0929 30.1666C33.7014 29.6354 34.2471 29.0994 34.6768 28.5827ZM31.3062 29.2684C30.5625 29.8768 29.7368 30.4853 28.9062 31.0599C28.9062 31.0599 28.9014 31.0599 28.9014 31.0648C27.9694 31.707 27.0374 32.3058 26.2165 32.8129C25.2941 33.3827 24.5118 33.8366 24.0483 34.1022C24.0048 34.1263 23.9565 34.1263 23.9131 34.1022C23.4446 33.8269 22.6817 33.3682 21.7786 32.7887C21.5082 30.7412 19.7601 29.1622 17.6402 29.1622C17.365 29.1622 17.0994 29.1911 16.8434 29.2394C15.5927 28.2012 14.4772 27.1195 13.7722 26.0958C13.7094 26.004 13.6515 25.9123 13.5935 25.8205C13.5501 25.7577 13.5066 25.6901 13.468 25.6273C13.4149 25.5404 13.3617 25.4583 13.3086 25.3714C11.6619 22.6962 11.4736 20.1803 11.5412 18.7847C11.5557 18.495 11.5799 18.2535 11.5992 18.07V18.0652C11.633 17.7996 11.6668 17.6499 11.6668 17.6499L11.6764 17.6451C11.9662 16.1674 12.705 14.8587 13.8302 13.8929C15.0133 12.8789 16.4957 12.338 18.0797 12.338C18.3018 12.338 18.5239 12.3573 18.746 12.3766V12.3815C18.775 12.3863 18.7992 12.3815 18.8281 12.3863C19.0406 12.4104 19.2483 12.4491 19.4511 12.4925C19.4607 12.4925 19.4704 12.4974 19.4801 12.5022C19.5863 12.5263 19.6925 12.565 19.7939 12.5939C20.6438 12.8837 21.4792 13.4438 22.2133 14.2261C22.2615 14.2744 22.3098 14.3227 22.3581 14.3662C22.532 14.5835 22.6961 14.8104 22.8458 15.0616C22.9038 15.1581 22.9617 15.2595 23.0197 15.3609L23.5702 16.3074C23.6813 16.5006 23.9565 16.5151 24.0917 16.3364L24.6422 15.5831C24.7726 15.3996 24.8982 15.2209 25.0237 15.0422C25.101 14.9312 25.1734 14.8249 25.2507 14.7187C25.3521 14.5787 25.468 14.4483 25.5935 14.3275C25.6949 14.2261 25.7963 14.1199 25.7963 14.1199C27.5299 12.1931 30.5432 11.7537 32.9529 13.0672C33.8318 13.5453 34.532 14.1296 35.0776 14.8153C35.1597 14.9167 35.2322 15.0229 35.3046 15.1292C35.9951 16.1239 36.3863 17.3215 36.4636 18.7557C36.5167 19.7698 36.4346 20.7597 36.2173 21.7352H36.1931C35.9517 22.8459 35.633 23.575 35.633 23.575C35.1018 24.874 34.3147 26.1489 33.2668 27.4189C32.7646 28.0032 32.0788 28.6358 31.3062 29.2684Z" fill="#2F2E34"/>
<path d="M20.6632 24.5166C20.6632 25.9943 22.1553 27.1967 24 27.1967C25.8447 27.1967 27.3368 25.9991 27.3368 24.5166" stroke="#2F2E34" stroke-width="3.1908" stroke-miterlimit="10" stroke-linecap="round"/>
<path d="M35.2998 15.1197C35.2274 15.0134 35.1549 14.9072 35.0728 14.8058C34.5272 14.1201 33.8221 13.5358 32.9481 13.0577C30.5384 11.7442 27.5251 12.1836 25.7915 14.1104C25.7915 14.1104 25.695 14.2166 25.5887 14.318C25.4632 14.4388 25.3473 14.5692 25.2459 14.7092C25.1686 14.8154 25.0962 14.9217 25.0189 15.0327C24.8982 15.2114 24.7726 15.3901 24.6374 15.5736L24.0869 16.3269C23.9565 16.5104 23.6813 16.4959 23.5654 16.2979L23.0149 15.3514C22.9569 15.2452 22.899 15.1486 22.841 15.0521C22.6913 14.8009 22.5223 14.574 22.3533 14.3567C22.305 14.3132 22.2519 14.2649 22.2084 14.2166C21.4744 13.4392 20.639 12.879 19.7891 12.5844C19.6829 12.5506 19.5815 12.5168 19.4752 12.4927C19.4656 12.4879 19.4559 12.4879 19.4463 12.483C19.2435 12.4347 19.0358 12.4009 18.8233 12.3768C18.7944 12.372 18.7702 12.3768 18.7412 12.372V12.3671C18.5191 12.3478 18.297 12.3285 18.0748 12.3285C16.4958 12.3285 15.0084 12.8694 13.8253 13.8834C12.7002 14.8541 11.9614 16.1579 11.6716 17.6356C11.6427 17.7756 11.6137 17.9108 11.5944 18.0557V18.0605C11.5654 18.2971 11.5412 18.5337 11.5364 18.7752C11.4688 20.1708 11.662 22.6867 13.3038 25.3619C13.3569 25.4488 13.4101 25.5309 13.4632 25.6178C13.5018 25.6806 13.5453 25.7482 13.5887 25.811C13.6467 25.9028 13.7046 25.9945 13.7674 26.0863C14.4724 27.11 15.5879 28.1965 16.8386 29.2299C17.0994 29.1816 17.365 29.1527 17.6354 29.1527C19.7553 29.1527 21.5034 30.7317 21.7738 32.7792C22.6769 33.3587 23.4398 33.8174 23.9082 34.0927C23.9517 34.1168 24 34.1168 24.0435 34.0927C24.507 33.8271 25.2893 33.3732 26.2117 32.8034C27.0326 32.2963 27.9646 31.7024 28.8966 31.0553C28.8966 31.0553 28.9014 31.0553 28.9014 31.0504C29.732 30.4758 30.5577 29.8722 31.3014 29.2589C32.074 28.6263 32.7598 27.9889 33.2523 27.3949C34.3002 26.1297 35.0873 24.8549 35.6185 23.551C35.6185 23.551 35.9372 22.817 36.1787 21.7112H36.2028C36.4201 20.7358 36.5022 19.7458 36.4491 18.7317C36.3815 17.312 35.9903 16.1144 35.2998 15.1197ZM11.7199 19.5575C11.7151 19.514 11.7199 19.5575 11.7199 19.5575V19.5575ZM18.9441 19.8617C18.9441 19.0118 19.6394 18.3164 20.4893 18.3164C21.3392 18.3164 22.0346 19.0118 22.0346 19.8617C22.0346 20.7116 21.3392 21.407 20.4893 21.407C19.6394 21.407 18.9441 20.7116 18.9441 19.8617ZM24 27.9696C21.7352 27.9696 19.8954 26.4243 19.8954 24.5217C19.8954 24.0967 20.2382 23.749 20.668 23.749C21.0978 23.749 21.4406 24.0919 21.4406 24.5217C21.4406 25.5744 22.5899 26.4291 24.0048 26.4291C25.4197 26.4291 26.569 25.5744 26.569 24.5217C26.569 24.0967 26.9119 23.749 27.3416 23.749C27.7666 23.749 28.1143 24.0919 28.1143 24.5217C28.1095 26.4195 26.2648 27.9696 24 27.9696ZM27.5155 21.407C26.6656 21.407 25.9702 20.7116 25.9702 19.8617C25.9702 19.0118 26.6656 18.3164 27.5155 18.3164C28.3654 18.3164 29.0608 19.0118 29.0608 19.8617C29.0608 20.7116 28.3654 21.407 27.5155 21.407Z" fill="white"/>
</svg>
