<svg width="246" height="42" viewBox="0 0 246 42" fill="none" xmlns="http://www.w3.org/2000/svg">
<path d="M156.264 18.6691C153.778 21.2454 152.52 24.5245 152.52 28.423C152.52 32.3215 153.771 35.593 156.242 38.1467C158.706 40.7004 161.649 41.9999 164.988 41.9999C168.306 41.9999 171.137 41.0706 173.398 39.2271L173.945 38.7813V41.2066H180.168V15.579H173.945V18.0722L173.398 17.6113C171.174 15.7376 168.343 14.7932 164.996 14.7932C161.686 14.7932 158.75 16.0927 156.264 18.6691ZM171.593 22.4845C173.151 24.0182 173.937 26.0128 173.937 28.4154C173.937 30.818 173.144 32.8051 171.586 34.3237C170.028 35.8348 168.216 36.6054 166.179 36.6054C163.97 36.6054 162.12 35.8499 160.69 34.369C159.26 32.8882 158.533 30.886 158.533 28.4154C158.533 25.9449 159.26 23.9351 160.69 22.4392C162.128 20.9357 163.97 20.1726 166.179 20.1726C168.216 20.1726 170.036 20.9508 171.593 22.4845Z" fill="white"/>
<path d="M215.828 14.7932C212.144 14.7932 208.999 16.0776 206.483 18.6238C203.967 21.1623 202.686 24.464 202.686 28.423C202.686 32.3895 203.952 35.6761 206.453 38.1996C208.954 40.723 212.069 41.9999 215.724 41.9999C218.569 41.9999 221.093 41.3275 223.227 39.9977C225.354 38.668 226.979 36.6809 228.057 34.0895L228.394 33.2433H222.396C220.973 35.5552 218.734 36.7187 215.731 36.7187C214.054 36.7187 212.563 36.1294 211.298 34.9734C210.047 33.825 209.231 32.2611 208.872 30.3345L208.797 29.9341H228.716V27.9017C228.582 24.0862 227.256 20.913 224.77 18.4726C222.284 16.0247 219.273 14.7932 215.828 14.7932ZM208.976 25.7031L209.081 25.28C209.486 23.6556 210.347 22.3863 211.65 21.4948C212.938 20.6184 214.346 20.1726 215.836 20.1726C217.364 20.1726 218.727 20.6032 219.895 21.4494C221.07 22.3032 221.887 23.5876 222.321 25.2724L222.433 25.6955H208.976V25.7031Z" fill="white"/>
<path d="M194.411 12.8742C194.411 11.5898 194.808 10.5623 195.587 9.82944C196.8 8.69615 198.665 8.45438 200.874 9.08902V3.59631C199.975 3.3621 199.054 3.24121 198.14 3.24121C195.145 3.24121 192.711 4.11763 190.899 5.84024C189.094 7.55529 188.181 9.92011 188.181 12.8667V15.579H184.212V20.5958H188.181V41.1991H194.404V20.5958H201.316V15.579H194.404V12.8742H194.411Z" fill="white"/>
<path d="M140.074 21.4193L132.548 19.8931C130.047 19.402 128.781 18.0874 128.781 15.9795C128.781 14.6497 129.35 13.5164 130.474 12.6098C131.574 11.7183 133.035 11.2725 134.809 11.2725C136.652 11.2725 138.269 11.8014 139.61 12.844C140.508 13.5391 141.175 14.4306 141.602 15.4884C141.781 15.9417 141.909 16.3497 141.991 16.7501H148.656L148.484 15.6621C147.847 12.6476 146.289 10.2223 143.863 8.45436C141.429 6.67887 138.434 5.77979 134.967 5.77979C130.99 5.77979 127.793 6.75442 125.464 8.68102C123.15 10.5925 121.982 13.116 121.982 16.191C121.982 21.5024 124.902 24.7058 130.908 25.9827L138.322 27.4031C139.902 27.7355 140.988 28.2115 141.654 28.8613C142.328 29.5186 142.673 30.4403 142.673 31.5812C142.673 32.9865 142.081 34.1575 140.92 35.0642C139.782 35.9481 138.172 36.4015 136.12 36.4015C132.308 36.4015 129.74 34.9131 128.489 31.9816C128.294 31.5283 128.145 31.0901 128.025 30.6519H120.971L121.143 31.7701L121.188 32.0043C121.63 35.1624 123.157 37.6254 125.733 39.3329C128.399 41.1009 131.664 41.9924 135.446 41.9924C139.527 41.9924 142.852 41.0026 145.323 39.0609C147.765 37.1343 149.008 34.4975 149.008 31.211C149.008 28.6119 148.222 26.4587 146.671 24.8267C145.099 23.1872 142.882 22.0388 140.074 21.4193Z" fill="white"/>
<path d="M243.274 15.0803C240.279 15.0803 237.845 15.9567 236.033 17.6793C234.228 19.3944 233.314 21.7592 233.314 24.7058V41.2066H239.537V27.4106V24.6982C239.537 23.4138 239.934 22.3863 240.713 21.6534C241.926 20.5201 243.791 20.2784 246 20.913V15.4203C245.109 15.1937 244.188 15.0803 243.274 15.0803Z" fill="white"/>
<path d="M4.12621 5.87805H0V41.1916H24.1881V37.3988H4.12621V5.87805Z" fill="white"/>
<path d="M31.8789 5.87805C31.115 5.87805 30.471 6.14249 29.9468 6.67136C29.4226 7.20023 29.1605 7.82732 29.1605 8.56774C29.1605 9.33838 29.4226 9.98059 29.9468 10.4943C30.471 11.0006 31.115 11.2574 31.8789 11.2574C32.6802 11.2574 33.3392 11.0006 33.8634 10.4943C34.3876 9.98814 34.6497 9.34594 34.6497 8.56774C34.6497 7.82732 34.3801 7.20023 33.8409 6.67136C33.3017 6.14249 32.6502 5.87805 31.8789 5.87805Z" fill="white"/>
<path d="M33.9158 16.4252H29.8944V41.199H33.9158V16.4252Z" fill="white"/>
<path d="M105.417 27.4862C105.275 23.6556 104.016 20.5353 101.628 18.1327C99.2387 15.7301 96.2882 14.5212 92.7761 14.5212C89.1217 14.5212 85.9839 15.7981 83.3704 18.3442C80.7569 20.8904 79.4539 24.1845 79.4539 28.2266C79.4539 32.2309 80.7419 35.5023 83.318 38.0334C85.8941 40.5644 88.9569 41.8261 92.514 41.8261C95.442 41.8261 97.9732 41.1159 100.115 39.6955C102.189 38.3129 103.724 36.3334 104.735 33.7797L105.155 32.7069H101.298L101.313 32.7144L101.291 32.7069C99.6506 36.4316 96.7301 38.2902 92.514 38.2902C90.1775 38.2902 88.1107 37.4365 86.2985 35.7366C84.4862 34.0291 83.4977 31.7776 83.318 28.967H105.417V27.4862V27.4862ZM83.4753 25.96C83.8572 23.5347 84.943 21.6157 86.7403 20.1877C88.5301 18.7673 90.5445 18.0571 92.7761 18.0571C94.9702 18.0571 96.8649 18.7522 98.4674 20.1424C100.07 21.5326 101.043 23.4743 101.395 25.9675H83.4753V25.96Z" fill="white"/>
<path d="M73.7101 15.156L64.5141 36.3939L56.1419 17.1506H56.1344C55.6177 15.9795 54.4569 15.156 53.1015 15.156C53.0865 15.156 53.0641 15.1635 53.0491 15.1635V15.156H50.9373H47.2155V9.0286C47.2155 7.37398 47.6798 6.0518 48.6009 5.06961C49.522 4.08742 50.7726 3.58877 52.3452 3.58877C53.3486 3.58877 54.3222 3.80032 55.2657 4.21586V0.559093C54.2548 0.226659 53.2138 0 52.0831 0C49.3947 0 47.2529 0.808418 45.6429 2.43281C44.0403 4.04965 43.239 6.2558 43.239 9.03615V15.1635H38.7384V18.5407H43.239V41.1991H47.2155V18.5332H50.2933C52.4201 18.5483 52.757 19.3492 53.2737 20.5051H53.2812L61.4363 39.1138C61.9455 40.3076 63.1212 41.1462 64.4916 41.1462C65.877 41.1462 67.0677 40.2849 67.5695 39.0685L78.046 15.1635H73.7101V15.156Z" fill="white"/>
</svg>
